{
  "accessors": [
    {
      "bufferView": 0,
      "componentType": 5125,
      "count": 90156,
      "type": "SCALAR"
    },
    {
      "bufferView": 1,
      "componentType": 5126,
      "count": 36665,
      "max": [
        20.360767364502,
        4.30231857299805,
        18.8207015991211
      ],
      "min": [
        -20.3536148071289,
        -94.1710662841797,
        -20.8520164489746
      ],
      "type": "VEC3"
    },
    {
      "bufferView": 2,
      "componentType": 5126,
      "count": 36665,
      "type": "VEC3"
    },
    {
      "bufferView": 3,
      "componentType": 5126,
      "count": 36665,
      "type": "VEC4"
    },
    {
      "bufferView": 4,
      "componentType": 5126,
      "count": 36665,
      "type": "VEC2"
    },
    {
      "bufferView": 5,
      "componentType": 5125,
      "count": 82467,
      "type": "SCALAR"
    },
    {
      "bufferView": 6,
      "componentType": 5126,
      "count": 25278,
      "max": [
        29.3809261322021,
        23.4807014465332,
        29.3813438415527
      ],
      "min": [
        -29.3809394836426,
        -94.7820129394531,
        -29.3810119628906
      ],
      "type": "VEC3"
    },
    {
      "bufferView": 7,
      "componentType": 5126,
      "count": 25278,
      "type": "VEC3"
    },
    {
      "bufferView": 8,
      "componentType": 5126,
      "count": 25278,
      "type": "VEC4"
    },
    {
      "bufferView": 9,
      "componentType": 5126,
      "count": 25278,
      "type": "VEC2"
    }
  ],
  "asset": {
    "generator": "Adobe Substance 3D Painter 9.1.2",
    "version": "2.0"
  },
  "bufferViews": [
    {
      "buffer": 0,
      "byteLength": 360624,
      "target": 34963
    },
    {
      "buffer": 0,
      "byteLength": 439980,
      "byteOffset": 360624,
      "target": 34962
    },
    {
      "buffer": 0,
      "byteLength": 439980,
      "byteOffset": 800604,
      "target": 34962
    },
    {
      "buffer": 0,
      "byteLength": 586640,
      "byteOffset": 1240584,
      "target": 34962
    },
    {
      "buffer": 0,
      "byteLength": 293320,
      "byteOffset": 1827224,
      "target": 34962
    },
    {
      "buffer": 0,
      "byteLength": 329868,
      "byteOffset": 2120544,
      "target": 34963
    },
    {
      "buffer": 0,
      "byteLength": 303336,
      "byteOffset": 2450412,
      "target": 34962
    },
    {
      "buffer": 0,
      "byteLength": 303336,
      "byteOffset": 2753748,
      "target": 34962
    },
    {
      "buffer": 0,
      "byteLength": 404448,
      "byteOffset": 3057084,
      "target": 34962
    },
    {
      "buffer": 0,
      "byteLength": 202224,
      "byteOffset": 3461532,
      "target": 34962
    }
  ],
  "buffers": [
    {
      "byteLength": 3663756,
      "uri": "S_Model_Matched_01.bin"
    }
  ],
  "images": [
    {
      "uri": "LargeDetails_baseColor_1001.png"
    },
    {
      "uri": "LargeDetails_occlusionRoughnessMetallic_1001.png"
    },
    {
      "uri": "LargeDetails_normal_1001.png"
    },
    {
      "uri": "SmallDetails_baseColor_1001.png"
    },
    {
      "uri": "SmallDetails_occlusionRoughnessMetallic_1001.png"
    },
    {
      "uri": "SmallDetails_normal_1001.png"
    }
  ],
  "materials": [
    {
      "alphaMode": "OPAQUE",
      "name": "LargeDetails_1001",
      "normalTexture": {
        "index": 2
      },
      "occlusionTexture": {
        "index": 1
      },
      "pbrMetallicRoughness": {
        "baseColorTexture": {
          "index": 0
        },
        "metallicRoughnessTexture": {
          "index": 1
        }
      }
    },
    {
      "alphaMode": "OPAQUE",
      "name": "SmallDetails_1001",
      "normalTexture": {
        "index": 5
      },
      "occlusionTexture": {
        "index": 4
      },
      "pbrMetallicRoughness": {
        "baseColorTexture": {
          "index": 3
        },
        "metallicRoughnessTexture": {
          "index": 4
        }
      }
    }
  ],
  "meshes": [
    {
      "name": "S_SmallBits",
      "primitives": [
        {
          "attributes": {
            "NORMAL": 2,
            "POSITION": 1,
            "TANGENT": 3,
            "TEXCOORD_0": 4
          },
          "indices": 0,
          "material": 1,
          "mode": 4
        }
      ]
    },
    {
      "name": "S_Main",
      "primitives": [
        {
          "attributes": {
            "NORMAL": 7,
            "POSITION": 6,
            "TANGENT": 8,
            "TEXCOORD_0": 9
          },
          "indices": 5,
          "material": 0,
          "mode": 4
        }
      ]
    }
  ],
  "nodes": [
    {
      "children": [
        1,
        3
      ],
      "name": "RootNode",
      "scale": [
        0.00999999977648258,
        0.00999999977648258,
        0.00999999977648258
      ]
    },
    {
      "children": [
        2
      ],
      "name": "S_SmallBits"
    },
    {
      "mesh": 0,
      "name": "S_SmallBits"
    },
    {
      "children": [
        4
      ],
      "name": "S_Main"
    },
    {
      "mesh": 1,
      "name": "S_Main"
    }
  ],
  "samplers": [
    {
      "magFilter": 9729,
      "minFilter": 9985,
      "wrapS": 10497,
      "wrapT": 10497
    }
  ],
  "scene": 0,
  "scenes": [
    {
      "name": "Scene",
      "nodes": [
        0
      ]
    }
  ],
  "textures": [
    {
      "sampler": 0,
      "source": 0
    },
    {
      "sampler": 0,
      "source": 1
    },
    {
      "sampler": 0,
      "source": 2
    },
    {
      "sampler": 0,
      "source": 3
    },
    {
      "sampler": 0,
      "source": 4
    },
    {
      "sampler": 0,
      "source": 5
    }
  ]
}