{
  "accessors": [
    {
      "bufferView": 0,
      "componentType": 5125,
      "count": 284487,
      "type": "SCALAR"
    },
    {
      "bufferView": 1,
      "componentType": 5126,
      "count": 92232,
      "max": [
        61.6213417053223,
        274.439636230469,
        66.6738739013672
      ],
      "min": [
        -61.6213417053223,
        130.971832275391,
        -66.6738433837891
      ],
      "type": "VEC3"
    },
    {
      "bufferView": 2,
      "componentType": 5126,
      "count": 92232,
      "type": "VEC3"
    },
    {
      "bufferView": 3,
      "componentType": 5126,
      "count": 92232,
      "type": "VEC4"
    },
    {
      "bufferView": 4,
      "componentType": 5126,
      "count": 92232,
      "type": "VEC2"
    },
    {
      "bufferView": 5,
      "componentType": 5125,
      "count": 123552,
      "type": "SCALAR"
    },
    {
      "bufferView": 6,
      "componentType": 5126,
      "count": 63517,
      "max": [
        58.8877563476562,
        271.198303222656,
        64.0812225341797
      ],
      "min": [
        -59.0548248291016,
        132.397369384766,
        -64.0996856689453
      ],
      "type": "VEC3"
    },
    {
      "bufferView": 7,
      "componentType": 5126,
      "count": 63517,
      "type": "VEC3"
    },
    {
      "bufferView": 8,
      "componentType": 5126,
      "count": 63517,
      "type": "VEC4"
    },
    {
      "bufferView": 9,
      "componentType": 5126,
      "count": 63517,
      "type": "VEC2"
    }
  ],
  "asset": {
    "generator": "Adobe Substance 3D Painter 9.1.2",
    "version": "2.0"
  },
  "bufferViews": [
    {
      "buffer": 0,
      "byteLength": 1137948,
      "target": 34963
    },
    {
      "buffer": 0,
      "byteLength": 1106784,
      "byteOffset": 1137948,
      "target": 34962
    },
    {
      "buffer": 0,
      "byteLength": 1106784,
      "byteOffset": 2244732,
      "target": 34962
    },
    {
      "buffer": 0,
      "byteLength": 1475712,
      "byteOffset": 3351516,
      "target": 34962
    },
    {
      "buffer": 0,
      "byteLength": 737856,
      "byteOffset": 4827228,
      "target": 34962
    },
    {
      "buffer": 0,
      "byteLength": 494208,
      "byteOffset": 5565084,
      "target": 34963
    },
    {
      "buffer": 0,
      "byteLength": 762204,
      "byteOffset": 6059292,
      "target": 34962
    },
    {
      "buffer": 0,
      "byteLength": 762204,
      "byteOffset": 6821496,
      "target": 34962
    },
    {
      "buffer": 0,
      "byteLength": 1016272,
      "byteOffset": 7583700,
      "target": 34962
    },
    {
      "buffer": 0,
      "byteLength": 508136,
      "byteOffset": 8599972,
      "target": 34962
    }
  ],
  "buffers": [
    {
      "byteLength": 9108108,
      "uri": "QX_Model_Matched_01.bin"
    }
  ],
  "images": [
    {
      "uri": "QX_Bolts_baseColor.png"
    },
    {
      "uri": "QX_Bolts_occlusionRoughnessMetallic.png"
    },
    {
      "uri": "QX_Bolts_normal.png"
    },
    {
      "uri": "QX_Main_baseColor.png"
    },
    {
      "uri": "QX_Main_occlusionRoughnessMetallic.png"
    },
    {
      "uri": "QX_Main_normal.png"
    }
  ],
  "materials": [
    {
      "alphaMode": "OPAQUE",
      "name": "QX_Bolts",
      "normalTexture": {
        "index": 2
      },
      "occlusionTexture": {
        "index": 1
      },
      "pbrMetallicRoughness": {
        "baseColorTexture": {
          "index": 0
        },
        "metallicRoughnessTexture": {
          "index": 1
        }
      }
    },
    {
      "alphaMode": "OPAQUE",
      "name": "QX_Main",
      "normalTexture": {
        "index": 5
      },
      "occlusionTexture": {
        "index": 4
      },
      "pbrMetallicRoughness": {
        "baseColorTexture": {
          "index": 3
        },
        "metallicRoughnessTexture": {
          "index": 4
        }
      }
    }
  ],
  "meshes": [
    {
      "name": "QX_Machine_internals",
      "primitives": [
        {
          "attributes": {
            "NORMAL": 2,
            "POSITION": 1,
            "TANGENT": 3,
            "TEXCOORD_0": 4
          },
          "indices": 0,
          "material": 1,
          "mode": 4
        }
      ]
    },
    {
      "name": "QX_BoltsClean",
      "primitives": [
        {
          "attributes": {
            "NORMAL": 7,
            "POSITION": 6,
            "TANGENT": 8,
            "TEXCOORD_0": 9
          },
          "indices": 5,
          "material": 0,
          "mode": 4
        }
      ]
    }
  ],
  "nodes": [
    {
      "children": [
        1,
        3
      ],
      "name": "RootNode",
      "scale": [
        0.00999999977648258,
        0.00999999977648258,
        0.00999999977648258
      ]
    },
    {
      "children": [
        2
      ],
      "name": "QX_Machine_internals",
      "rotation": [
        -3.7748947079308e-08,
        0.0,
        0.0,
        1.0
      ]
    },
    {
      "mesh": 0,
      "name": "QX_Machine_internals"
    },
    {
      "children": [
        4
      ],
      "name": "QX_BoltsClean",
      "rotation": [
        -3.7748947079308e-08,
        0.0,
        0.0,
        1.0
      ]
    },
    {
      "mesh": 1,
      "name": "QX_BoltsClean"
    }
  ],
  "samplers": [
    {
      "magFilter": 9729,
      "minFilter": 9985,
      "wrapS": 10497,
      "wrapT": 10497
    }
  ],
  "scene": 0,
  "scenes": [
    {
      "name": "Scene",
      "nodes": [
        0
      ]
    }
  ],
  "textures": [
    {
      "sampler": 0,
      "source": 0
    },
    {
      "sampler": 0,
      "source": 1
    },
    {
      "sampler": 0,
      "source": 2
    },
    {
      "sampler": 0,
      "source": 3
    },
    {
      "sampler": 0,
      "source": 4
    },
    {
      "sampler": 0,
      "source": 5
    }
  ]
}