{
  "accessors": [
    {
      "bufferView": 2,
      "componentType": 5126,
      "count": 1470,
      "max": [
        0.8419656753540039,
        -1.0636566877365112,
        0.84196537733078
      ],
      "min": [
        -0.8419651389122009,
        -3.0976040363311768,
        -0.8419650793075562
      ],
      "type": "VEC3"
    },
    {
      "bufferView": 2,
      "byteOffset": 17640,
      "componentType": 5126,
      "count": 1470,
      "max": [
        1.0,
        1.0,
        1.0
      ],
      "min": [
        -1.0,
        -1.0,
        -1.0
      ],
      "type": "VEC3"
    },
    {
      "bufferView": 3,
      "componentType": 5126,
      "count": 1470,
      "max": [
        0.7784423828125,
        1.0,
        0.8322754502296448,
        1.0
      ],
      "min": [
        -0.7952508926391602,
        -0.6935156583786011,
        -0.8184917569160461,
        1.0
      ],
      "type": "VEC4"
    },
    {
      "bufferView": 1,
      "componentType": 5126,
      "count": 1470,
      "max": [
        0.99169921875,
        0.87060546875
      ],
      "min": [
        0.00806427001953125,
        0.00806427001953125
      ],
      "type": "VEC2"
    },
    {
      "bufferView": 1,
      "byteOffset": 11760,
      "componentType": 5126,
      "count": 1470,
      "max": [
        0.9921875,
        0.9921875
      ],
      "min": [
        0.0078125,
        0.03802490234375
      ],
      "type": "VEC2"
    },
    {
      "bufferView": 1,
      "byteOffset": 23520,
      "componentType": 5126,
      "count": 1470,
      "max": [
        0.99169921875,
        0.87060546875
      ],
      "min": [
        0.00806427001953125,
        0.00806427001953125
      ],
      "type": "VEC2"
    },
    {
      "bufferView": 1,
      "byteOffset": 35280,
      "componentType": 5126,
      "count": 1470,
      "max": [
        0.99169921875,
        0.87060546875
      ],
      "min": [
        0.00806427001953125,
        0.00806427001953125
      ],
      "type": "VEC2"
    },
    {
      "bufferView": 1,
      "byteOffset": 47040,
      "componentType": 5126,
      "count": 1470,
      "max": [
        0.99169921875,
        0.87060546875
      ],
      "min": [
        0.00806427001953125,
        0.00806427001953125
      ],
      "type": "VEC2"
    },
    {
      "bufferView": 1,
      "byteOffset": 58800,
      "componentType": 5126,
      "count": 1470,
      "max": [
        0.99169921875,
        0.87060546875
      ],
      "min": [
        0.00806427001953125,
        0.00806427001953125
      ],
      "type": "VEC2"
    },
    {
      "bufferView": 0,
      "componentType": 5125,
      "count": 4260,
      "type": "SCALAR"
    },
    {
      "bufferView": 2,
      "byteOffset": 35280,
      "componentType": 5126,
      "count": 42,
      "max": [
        0.16869601607322693,
        0.3716622591018677,
        0.1728501319885254
      ],
      "min": [
        -0.17744459211826324,
        -1.5614509582519531,
        -0.16869612038135529
      ],
      "type": "VEC3"
    },
    {
      "bufferView": 2,
      "byteOffset": 35784,
      "componentType": 5126,
      "count": 42,
      "max": [
        0.9999690055847168,
        0.007873771712183952,
        1.0
      ],
      "min": [
        -0.9999690055847168,
        -0.007873771712183952,
        -1.0
      ],
      "type": "VEC3"
    },
    {
      "bufferView": 3,
      "byteOffset": 23520,
      "componentType": 5126,
      "count": 42,
      "max": [
        1.0,
        0.007865729741752148,
        1.0,
        1.0
      ],
      "min": [
        -1.0,
        -0.007865729741752148,
        -1.0,
        1.0
      ],
      "type": "VEC4"
    },
    {
      "bufferView": 1,
      "byteOffset": 70560,
      "componentType": 5126,
      "count": 42,
      "max": [
        0.99169921875,
        0.99169921875
      ],
      "min": [
        0.00806427001953125,
        0.00806427001953125
      ],
      "type": "VEC2"
    },
    {
      "bufferView": 1,
      "byteOffset": 70896,
      "componentType": 5126,
      "count": 42,
      "max": [
        0.6640625,
        0.9921875
      ],
      "min": [
        0.0078125,
        0.0078125
      ],
      "type": "VEC2"
    },
    {
      "bufferView": 1,
      "byteOffset": 71232,
      "componentType": 5126,
      "count": 42,
      "max": [
        0.99169921875,
        0.99169921875
      ],
      "min": [
        0.00806427001953125,
        0.00806427001953125
      ],
      "type": "VEC2"
    },
    {
      "bufferView": 1,
      "byteOffset": 71568,
      "componentType": 5126,
      "count": 42,
      "max": [
        0.99169921875,
        0.99169921875
      ],
      "min": [
        0.00806427001953125,
        0.00806427001953125
      ],
      "type": "VEC2"
    },
    {
      "bufferView": 1,
      "byteOffset": 71904,
      "componentType": 5126,
      "count": 42,
      "max": [
        0.99169921875,
        0.99169921875
      ],
      "min": [
        0.00806427001953125,
        0.00806427001953125
      ],
      "type": "VEC2"
    },
    {
      "bufferView": 1,
      "byteOffset": 72240,
      "componentType": 5126,
      "count": 42,
      "max": [
        0.99169921875,
        0.99169921875
      ],
      "min": [
        0.00806427001953125,
        0.00806427001953125
      ],
      "type": "VEC2"
    },
    {
      "bufferView": 0,
      "byteOffset": 17040,
      "componentType": 5125,
      "count": 120,
      "type": "SCALAR"
    },
    {
      "bufferView": 2,
      "byteOffset": 36288,
      "componentType": 5126,
      "count": 27164,
      "max": [
        1.0,
        0.9655258655548096,
        1.0
      ],
      "min": [
        -1.000000238418579,
        -3.0548336505889893,
        -1.0000004768371582
      ],
      "type": "VEC3"
    },
    {
      "bufferView": 2,
      "byteOffset": 362256,
      "componentType": 5126,
      "count": 27164,
      "max": [
        1.0,
        1.0,
        1.0
      ],
      "min": [
        -1.0,
        -1.0,
        -1.0
      ],
      "type": "VEC3"
    },
    {
      "bufferView": 3,
      "byteOffset": 24192,
      "componentType": 5126,
      "count": 27164,
      "max": [
        1.0,
        1.0,
        1.0,
        1.0
      ],
      "min": [
        -1.0,
        -1.0,
        -1.0,
        -1.0
      ],
      "type": "VEC4"
    },
    {
      "bufferView": 1,
      "byteOffset": 72576,
      "componentType": 5126,
      "count": 27164,
      "max": [
        0.98974609375,
        0.927734375
      ],
      "min": [
        0.00806427001953125,
        0.00806427001953125
      ],
      "type": "VEC2"
    },
    {
      "bufferView": 1,
      "byteOffset": 289888,
      "componentType": 5126,
      "count": 27164,
      "max": [
        0.96435546875,
        0.9921875
      ],
      "min": [
        0.0078125,
        0.10736083984375
      ],
      "type": "VEC2"
    },
    {
      "bufferView": 1,
      "byteOffset": 507200,
      "componentType": 5126,
      "count": 27164,
      "max": [
        0.98974609375,
        0.927734375
      ],
      "min": [
        0.00806427001953125,
        0.00806427001953125
      ],
      "type": "VEC2"
    },
    {
      "bufferView": 1,
      "byteOffset": 724512,
      "componentType": 5126,
      "count": 27164,
      "max": [
        0.98974609375,
        0.927734375
      ],
      "min": [
        0.00806427001953125,
        0.00806427001953125
      ],
      "type": "VEC2"
    },
    {
      "bufferView": 1,
      "byteOffset": 941824,
      "componentType": 5126,
      "count": 27164,
      "max": [
        0.98974609375,
        0.927734375
      ],
      "min": [
        0.00806427001953125,
        0.00806427001953125
      ],
      "type": "VEC2"
    },
    {
      "bufferView": 1,
      "byteOffset": 1159136,
      "componentType": 5126,
      "count": 27164,
      "max": [
        0.98974609375,
        0.927734375
      ],
      "min": [
        0.00806427001953125,
        0.00806427001953125
      ],
      "type": "VEC2"
    },
    {
      "bufferView": 0,
      "byteOffset": 17520,
      "componentType": 5125,
      "count": 88086,
      "type": "SCALAR"
    }
  ],
  "asset": {
    "extras": {
      "author": "trafiq29 (https://sketchfab.com/trafiq29)",
      "license": "CC-BY-4.0 (http://creativecommons.org/licenses/by/4.0/)",
      "source": "https://sketchfab.com/3d-models/chandelier-static-01-0d27902df41a4dbaadd14d855a38fca4",
      "title": "Chandelier_static_01"
    },
    "generator": "Sketchfab-15.55.0",
    "version": "2.0"
  },
  "bufferViews": [
    {
      "buffer": 0,
      "byteLength": 369864,
      "name": "floatBufferViews",
      "target": 34963
    },
    {
      "buffer": 0,
      "byteLength": 1376448,
      "byteOffset": 369864,
      "byteStride": 8,
      "name": "floatBufferViews",
      "target": 34962
    },
    {
      "buffer": 0,
      "byteLength": 688224,
      "byteOffset": 1746312,
      "byteStride": 12,
      "name": "floatBufferViews",
      "target": 34962
    },
    {
      "buffer": 0,
      "byteLength": 458816,
      "byteOffset": 2434536,
      "byteStride": 16,
      "name": "floatBufferViews",
      "target": 34962
    }
  ],
  "buffers": [
    {
      "byteLength": 2893352,
      "uri": "scene.bin"
    }
  ],
  "extensionsUsed": [
    "KHR_texture_transform",
    "KHR_materials_specular"
  ],
  "images": [
    {
      "uri": "textures/Ch_Main_02_Chandelier_011_baseColor.png"
    },
    {
      "uri": "textures/Ch_Main_02_Chandelier_011_metallicRoughness.png"
    },
    {
      "uri": "textures/Ch_Main_02_Chandelier_011_normal.png"
    },
    {
      "uri": "textures/Ch_Main_02_Chandelier_011_specularf0.png"
    },
    {
      "uri": "textures/Ch_Glass_Chandelier_0112_baseColor.png"
    },
    {
      "uri": "textures/Ch_Glass_Chandelier_0112_metallicRoughness.png"
    },
    {
      "uri": "textures/Ch_Glass_Chandelier_0112_normal.png"
    },
    {
      "uri": "textures/Ch_Main_01_Chandelier_01_baseColor.png"
    },
    {
      "uri": "textures/Ch_Main_01_Chandelier_01_metallicRoughness.png"
    },
    {
      "uri": "textures/Ch_Main_01_Chandelier_01_normal.png"
    },
    {
      "uri": "textures/Ch_Main_01_Chandelier_01_specularf0.png"
    }
  ],
  "materials": [
    {
      "extensions": {
        "KHR_materials_specular": {
          "specularColorFactor": [
            1.0,
            1.0,
            1.0
          ],
          "specularFactor": 1.0,
          "specularTexture": {
            "index": 3,
            "texCoord": 1
          }
        }
      },
      "name": "Ch_Main_02_Chandelier_011",
      "normalTexture": {
        "extensions": {
          "KHR_texture_transform": {
            "offset": [
              -0.00819844,
              -0.00934943
            ],
            "scale": [
              1.01664,
              1.15936
            ]
          }
        },
        "index": 2
      },
      "occlusionTexture": {
        "extensions": {
          "KHR_texture_transform": {
            "offset": [
              -0.00819844,
              -0.00934943
            ],
            "scale": [
              1.01664,
              1.15936
            ]
          }
        },
        "index": 1
      },
      "pbrMetallicRoughness": {
        "baseColorTexture": {
          "extensions": {
            "KHR_texture_transform": {
              "offset": [
                -0.00819844,
                -0.00934943
              ],
              "scale": [
                1.01664,
                1.15936
              ]
            }
          },
          "index": 0
        },
        "metallicRoughnessTexture": {
          "extensions": {
            "KHR_texture_transform": {
              "offset": [
                -0.00819844,
                -0.00934943
              ],
              "scale": [
                1.01664,
                1.15936
              ]
            }
          },
          "index": 1
        }
      }
    },
    {
      "alphaMode": "BLEND",
      "name": "Ch_Glass_Chandelier_0112",
      "normalTexture": {
        "extensions": {
          "KHR_texture_transform": {
            "offset": [
              -0.00819844,
              -0.00819844
            ],
            "scale": [
              1.01664,
              1.01664
            ]
          }
        },
        "index": 6
      },
      "occlusionTexture": {
        "extensions": {
          "KHR_texture_transform": {
            "offset": [
              -0.00819844,
              -0.00819844
            ],
            "scale": [
              1.01664,
              1.01664
            ]
          }
        },
        "index": 5
      },
      "pbrMetallicRoughness": {
        "baseColorTexture": {
          "extensions": {
            "KHR_texture_transform": {
              "offset": [
                -0.00819844,
                -0.00819844
              ],
              "scale": [
                1.01664,
                1.01664
              ]
            }
          },
          "index": 4
        },
        "metallicRoughnessTexture": {
          "extensions": {
            "KHR_texture_transform": {
              "offset": [
                -0.00819844,
                -0.00819844
              ],
              "scale": [
                1.01664,
                1.01664
              ]
            }
          },
          "index": 5
        }
      }
    },
    {
      "extensions": {
        "KHR_materials_specular": {
          "specularColorFactor": [
            1.0,
            1.0,
            1.0
          ],
          "specularFactor": 1.0,
          "specularTexture": {
            "index": 10,
            "texCoord": 1
          }
        }
      },
      "name": "Ch_Main_01_Chandelier_01",
      "normalTexture": {
        "extensions": {
          "KHR_texture_transform": {
            "offset": [
              -0.00821475,
              -0.00876866
            ],
            "scale": [
              1.01866,
              1.08735
            ]
          }
        },
        "index": 9
      },
      "occlusionTexture": {
        "extensions": {
          "KHR_texture_transform": {
            "offset": [
              -0.00821475,
              -0.00876866
            ],
            "scale": [
              1.01866,
              1.08735
            ]
          }
        },
        "index": 8
      },
      "pbrMetallicRoughness": {
        "baseColorTexture": {
          "extensions": {
            "KHR_texture_transform": {
              "offset": [
                -0.00821475,
                -0.00876866
              ],
              "scale": [
                1.01866,
                1.08735
              ]
            }
          },
          "index": 7
        },
        "metallicRoughnessTexture": {
          "extensions": {
            "KHR_texture_transform": {
              "offset": [
                -0.00821475,
                -0.00876866
              ],
              "scale": [
                1.01866,
                1.08735
              ]
            }
          },
          "index": 8
        }
      }
    }
  ],
  "meshes": [
    {
      "name": "Object_0",
      "primitives": [
        {
          "attributes": {
            "NORMAL": 1,
            "POSITION": 0,
            "TANGENT": 2,
            "TEXCOORD_0": 3,
            "TEXCOORD_1": 4,
            "TEXCOORD_2": 5,
            "TEXCOORD_3": 6,
            "TEXCOORD_4": 7,
            "TEXCOORD_5": 8
          },
          "indices": 9,
          "material": 0,
          "mode": 4
        }
      ]
    },
    {
      "name": "Object_1",
      "primitives": [
        {
          "attributes": {
            "NORMAL": 11,
            "POSITION": 10,
            "TANGENT": 12,
            "TEXCOORD_0": 13,
            "TEXCOORD_1": 14,
            "TEXCOORD_2": 15,
            "TEXCOORD_3": 16,
            "TEXCOORD_4": 17,
            "TEXCOORD_5": 18
          },
          "indices": 19,
          "material": 1,
          "mode": 4
        }
      ]
    },
    {
      "name": "Object_2",
      "primitives": [
        {
          "attributes": {
            "NORMAL": 21,
            "POSITION": 20,
            "TANGENT": 22,
            "TEXCOORD_0": 23,
            "TEXCOORD_1": 24,
            "TEXCOORD_2": 25,
            "TEXCOORD_3": 26,
            "TEXCOORD_4": 27,
            "TEXCOORD_5": 28
          },
          "indices": 29,
          "material": 2,
          "mode": 4
        }
      ]
    }
  ],
  "nodes": [
    {
      "children": [
        1
      ],
      "matrix": [
        1.0,
        0.0,
        0.0,
        0.0,
        0.0,
        2.220446049250313e-16,
        -1.0,
        0.0,
        0.0,
        1.0,
        2.220446049250313e-16,
        0.0,
        0.0,
        0.0,
        0.0,
        1.0
      ],
      "name": "Sketchfab_model"
    },
    {
      "children": [
        2
      ],
      "name": "root"
    },
    {
      "children": [
        3,
        5,
        7
      ],
      "matrix": [
        1.0,
        0.0,
        0.0,
        0.0,
        0.0,
        2.220446049250313e-16,
        1.0,
        0.0,
        0.0,
        -1.0,
        2.220446049250313e-16,
        0.0,
        0.0,
        0.0,
        0.0,
        1.0
      ],
      "name": "GLTF_SceneRootNode"
    },
    {
      "children": [
        4
      ],
      "matrix": [
        0.29999998211860657,
        0.0,
        0.0,
        0.0,
        0.0,
        0.29999998211860657,
        0.0,
        0.0,
        0.0,
        0.0,
        0.30000001192092896,
        0.0,
        0.0,
        0.0,
        0.0,
        1.0
      ],
      "name": "Chandelier_011_4"
    },
    {
      "mesh": 0,
      "name": "Object_4"
    },
    {
      "children": [
        6
      ],
      "matrix": [
        0.30000001192092896,
        0.0,
        0.0,
        0.0,
        0.0,
        0.30000001192092896,
        0.0,
        0.0,
        0.0,
        0.0,
        0.30000001192092896,
        0.0,
        0.0,
        0.0,
        0.0,
        1.0
      ],
      "name": "Chandelier_0112_5"
    },
    {
      "mesh": 1,
      "name": "Object_6"
    },
    {
      "children": [
        8
      ],
      "matrix": [
        0.30000001192092896,
        0.0,
        0.0,
        0.0,
        0.0,
        0.30000001192092896,
        0.0,
        0.0,
        0.0,
        0.0,
        0.30000001192092896,
        0.0,
        0.0,
        0.0,
        0.0,
        1.0
      ],
      "name": "Chandelier_01_6"
    },
    {
      "mesh": 2,
      "name": "Object_8"
    }
  ],
  "samplers": [
    {
      "magFilter": 9729,
      "minFilter": 9987,
      "wrapS": 10497,
      "wrapT": 10497
    }
  ],
  "scene": 0,
  "scenes": [
    {
      "name": "Sketchfab_Scene",
      "nodes": [
        0
      ]
    }
  ],
  "textures": [
    {
      "sampler": 0,
      "source": 0
    },
    {
      "sampler": 0,
      "source": 1
    },
    {
      "sampler": 0,
      "source": 2
    },
    {
      "sampler": 0,
      "source": 3
    },
    {
      "sampler": 0,
      "source": 4
    },
    {
      "sampler": 0,
      "source": 5
    },
    {
      "sampler": 0,
      "source": 6
    },
    {
      "sampler": 0,
      "source": 7
    },
    {
      "sampler": 0,
      "source": 8
    },
    {
      "sampler": 0,
      "source": 9
    },
    {
      "sampler": 0,
      "source": 10
    }
  ]
}
